<svg width="800" height="600" xmlns="http://www.w3.org/2000/svg">
  <defs>
    <!-- Stick Figure Definition -->
    <g id="figure">
      <circle cx="0" cy="-25" r="8" fill="none" stroke="black" stroke-width="2"/>
      <line x1="0" y1="-17" x2="0" y2="15" stroke="black" stroke-width="2"/>
      <polygon points="0,15 -8,25 8,25" fill="none" stroke="black" stroke-width="2"/>
    </g>
    
    <!-- Box Container -->
    <rect id="box" x="0" y="0" width="100" height="100" fill="none" stroke="black" stroke-width="2"/>
  </defs>

  <rect width="100%" height="100%" fill="white" />
  
  <text x="50" y="30" font-family="Arial" font-size="20">Problem Figure:</text>

  <!-- 3x3 Matrix -->
  <g transform="translate(200, 50)">
    <!-- Row 1 -->
    <!-- R1C1: 3 Figures -->
    <g transform="translate(0, 0)">
       <use href="#box"/>
       <use href="#figure" x="25" y="50"/>
       <use href="#figure" x="50" y="50"/>
       <use href="#figure" x="75" y="50"/>
    </g>
    <!-- R1C2: 1 Figure -->
    <g transform="translate(100, 0)">
       <use href="#box"/>
       <use href="#figure" x="50" y="50"/>
    </g>
    <!-- R1C3: 2 Figures -->
    <g transform="translate(200, 0)">
       <use href="#box"/>
       <use href="#figure" x="35" y="50"/>
       <use href="#figure" x="65" y="50"/>
    </g>

    <!-- Row 2 -->
    <!-- R2C1: 2 Figures -->
    <g transform="translate(0, 100)">
       <use href="#box"/>
       <use href="#figure" x="35" y="50"/>
       <use href="#figure" x="65" y="50"/>
    </g>
    <!-- R2C2: 1 Figure -->
    <g transform="translate(100, 100)">
       <use href="#box"/>
       <use href="#figure" x="50" y="50"/>
    </g>
    <!-- R2C3: 1 Figure -->
    <g transform="translate(200, 100)">
       <use href="#box"/>
       <use href="#figure" x="50" y="50"/>
    </g>

    <!-- Row 3 -->
    <!-- R3C1: 2 Figures -->
    <g transform="translate(0, 200)">
       <use href="#box"/>
       <use href="#figure" x="35" y="50"/>
       <use href="#figure" x="65" y="50"/>
    </g>
    <!-- R3C2: 2 Figures -->
    <g transform="translate(100, 200)">
       <use href="#box"/>
       <use href="#figure" x="35" y="50"/>
       <use href="#figure" x="65" y="50"/>
    </g>
    <!-- R3C3: Question Mark -->
    <g transform="translate(200, 200)">
       <use href="#box"/>
       <text x="50" y="65" font-family="Arial" font-size="50" text-anchor="middle">?</text>
    </g>
  </g>

  <!-- Options -->
  <text x="50" y="400" font-family="Arial" font-size="20">Answer Figures:</text>
  
  <g transform="translate(100, 420)">
      <!-- Option 1: 1 Figure -->
      <g transform="translate(0, 0)">
        <text x="-20" y="55" font-family="Arial" font-size="16">(1)</text>
        <use href="#box"/>
        <use href="#figure" x="50" y="50"/>
      </g>
      
      <!-- Option 2: Empty -->
      <g transform="translate(150, 0)">
        <text x="-20" y="55" font-family="Arial" font-size="16">(2)</text>
        <use href="#box"/>
      </g>
      
      <!-- Option 3: 1 Figure (Maybe slightly different? stick to 1 for consistency with my logic logic 2-2=0) -->
      <!-- Actually in the reference image Opt 3 has one figure. Opt 4 has 2 figures. -->
      <!-- Reference: Opt 1 (1 fig), Opt 2 (Empty), Opt 3 (1 fig), Opt 4 (2 figs) -->
      <g transform="translate(300, 0)">
        <text x="-20" y="55" font-family="Arial" font-size="16">(3)</text>
        <use href="#box"/>
        <use href="#figure" x="50" y="50"/>
      </g>
      
      <g transform="translate(450, 0)">
        <text x="-20" y="55" font-family="Arial" font-size="16">(4)</text>
        <use href="#box"/>
        <use href="#figure" x="35" y="50"/>
        <use href="#figure" x="65" y="50"/>
      </g>
  </g>
</svg>
